/Users/alexandershapinsky/Desktop/krita.app/Contents/MacOS/ffmpeg -hide_banner -y -y -r 12 -start_number 0 -start_number_range 1 -i /Users/alexandershapinsky/programs/chromadelve/imgs/GUI/cutscenes/frame%04d.png -i /Users/alexandershapinsky/programs/chromadelve/imgs/GUI/cutscenes/KritaTempPalettegen_%06d.png -lavfi [0:v][1:v]paletteuse=dither=sierra2_4a:diff_mode=none -f gif -loop 0 -gifflags +transdiff /Users/alexandershapinsky/programs/chromadelve/imgs/GUI/cutscenes/opening fog2.gif
=====================================================
Input #0, image2, from '/Users/alexandershapinsky/programs/chromadelve/imgs/GUI/cutscenes/frame%04d.png':
  Duration: 00:00:01.12, start: 0.000000, bitrate: N/A
  Stream #0:0: Video: png, rgba(pc), 160x120 [SAR 11811:11811 DAR 4:3], 25 fps, 25 tbr, 25 tbn, 25 tbc
Input #1, image2, from '/Users/alexandershapinsky/programs/chromadelve/imgs/GUI/cutscenes/KritaTempPalettegen_%06d.png':
  Duration: 00:00:00.04, start: 0.000000, bitrate: N/A
  Stream #1:0: Video: png, rgba(pc), 16x16 [SAR 1:1 DAR 1:1], 25 fps, 25 tbr, 25 tbn, 25 tbc
Stream mapping:
  Stream #0:0 (png) -> paletteuse:default
  Stream #1:0 (png) -> paletteuse:palette
  paletteuse -> Stream #0:0 (gif)
Press [q] to stop, [?] for help
[image2 @ 0x7f78c7008800] Thread message queue blocking; consider raising the thread_queue_size option (current value: 8)
Output #0, gif, to '/Users/alexandershapinsky/programs/chromadelve/imgs/GUI/cutscenes/opening fog2.gif':
  Metadata:
    encoder         : Lavf58.76.100
  Stream #0:0: Video: gif, pal8(pc, gbr/unknown/unknown, progressive), 160x120 [SAR 1:1 DAR 4:3], q=2-31, 200 kb/s, 12 fps, 100 tbn (default)
    Metadata:
      encoder         : Lavc58.134.100 gif
frame=    1 fps=0.0 q=-0.0 size=       0kB time=00:00:00.01 bitrate=   0.0kbits/s speed=10.3x    frame=   28 fps=0.0 q=-0.0 Lsize=      38kB time=00:00:02.26 bitrate= 136.8kbits/s speed=57.1x    
video:38kB audio:0kB subtitle:0kB other streams:0kB global headers:0kB muxing overhead: 0.051765%
